<svg id="Layer_1" data-name="Layer 1" xmlns="http://www.w3.org/2000/svg" viewBox="0 0 1500 750"><defs><style>.cls-1{fill:#cf649a;}.cls-2{fill:#39393d;}.cls-3{fill:#dbdbdb;}</style></defs><title>logo</title><path class="cls-1" d="M831.64,410.16a151.73,151.73,0,0,0-66.75,15.54c-6.91-13.67-13.81-25.61-15-34.53-1.29-10.36-2.88-16.69-1.29-29.06s8.77-29.92,8.77-31.36-1.58-7.62-16.4-7.77-27.62,2.88-29.06,6.76a165.22,165.22,0,0,0-6.19,22c-2.59,13.52-29.63,61.43-45,86.6-5-9.78-9.35-18.41-10.22-25.32-1.29-10.36-2.88-16.69-1.29-29.06S658,354.05,658,352.62s-1.58-7.62-16.4-7.77-27.62,2.88-29.06,6.76-3,13.09-6.19,22-39,88.9-48.34,109.76c-4.75,10.65-8.92,19.13-11.94,24.89s-.14.43-.43,1c-2.59,4.89-4,7.62-4,7.62V517c-2,3.6-4.17,7-5.18,7-.72,0-2.16-9.64.29-22.87,5.32-27.77,18.27-71.07,18.13-72.65,0-.72,2.44-8.35-8.35-12.23-10.5-3.88-14.24,2.59-15.11,2.59s-1.58,2.3-1.58,2.3,11.65-48.77-22.3-48.77c-21.29,0-50.64,23.16-65.17,44.31-9.21,5-28.77,15.68-49.49,27-7.91,4.32-16.11,8.92-23.88,13.09l-1.58-1.73c-41.14-43.88-117.24-74.95-114.08-133.93,1.15-21.43,8.63-78,146.16-146.45C512.13,118.7,602.33,134.1,618,168.33c22.3,48.91-48.19,139.83-165.29,152.92-44.6,5-68-12.23-73.94-18.7-6.19-6.76-7-7-9.35-5.75-3.74,2-1.44,8.06,0,11.65,3.45,9.06,17.84,25.18,42.29,33.23,21.43,7,73.8,10.93,137.1-13.52,70.92-27.48,126.31-103.72,110.05-167.45C642.32,95.83,534.72,74.54,433,110.65c-60.57,21.58-126.16,55.24-173.35,99.41-56.1,52.36-65,98.11-61.28,117.1,13.09,67.76,106.45,111.92,143.86,144.58-1.87,1-3.6,2-5.18,2.88-18.7,9.21-89.91,46.47-107.75,85.88-20.14,44.6,3.16,76.68,18.7,81,48,13.38,97.25-10.65,123.86-50.21s23.3-90.92,11.08-114.37l-.43-.86,14.67-8.63c9.5-5.61,18.85-10.79,27-15.25-4.6,12.52-7.91,27.33-9.64,48.91-2,25.32,8.34,58.12,22,71.07,6,5.61,13.23,5.75,17.69,5.75,15.82,0,23-13.09,30.93-28.77,9.78-19.13,18.41-41.29,18.41-41.29s-10.79,60,18.7,60c10.79,0,21.58-14,26.47-21.15v.14s.29-.43.86-1.44,1.18-1.8,1.73-2.73v-.29c4.32-7.48,14-24.6,28.34-52.94,18.56-36.54,36.4-82.29,36.4-82.29a262.57,262.57,0,0,0,7,29.63c3.16,10.93,10.07,22.87,15.39,34.53-4.32,6-6.91,9.5-6.91,9.5l.14.14c-3.45,4.6-7.34,9.5-11.36,14.39-14.67,17.55-32.22,37.55-34.53,43.3-2.73,6.76-2.16,11.79,3.16,15.82,3.88,2.88,10.79,3.45,18.13,2.88a80.75,80.75,0,0,0,27-6.19,93.67,93.67,0,0,0,23.3-12.23c14.39-10.64,23.16-25.75,22.3-45.89-.43-11.08-4-22-8.49-32.37,1.29-1.87,2.59-3.74,3.88-5.75,22.73-33.23,40.28-69.77,40.28-69.77a262.57,262.57,0,0,0,7,29.63c2.73,9.35,8.2,19.57,13.09,29.64-21.29,17.41-34.67,37.55-39.27,50.78-8.49,24.46-1.87,35.53,10.65,38.12,5.61,1.15,13.67-1.44,19.71-4a89.31,89.31,0,0,0,24.89-12.8C766,505.83,779.85,491,779.13,471c-.43-9.21-2.88-18.27-6.19-26.9,18.13-7.48,41.57-11.8,71.35-8.2,64,7.48,76.68,47.47,74.23,64.16S902.71,526,898.25,528.85s-5.9,3.74-5.47,5.75c.58,3,2.59,2.88,6.47,2.3,5.32-.86,33.66-13.67,34.81-44.45,1.73-39.57-35.82-82.72-102.43-82.29ZM337.92,576.6c-21.15,23.16-50.93,31.94-63.59,24.46-13.67-7.91-8.35-42,17.69-66.61,15.82-15,36.4-28.77,49.92-37.26,3-1.87,7.62-4.6,13.09-7.91a15.34,15.34,0,0,1,1.44-.86c1-.58,2.16-1.29,3.31-2,9.64,35.1.43,65.89-21.87,90.2ZM492.57,471.44c-7.34,18-22.87,64.16-32.22,61.57-8.06-2.16-12.95-37.12-1.58-71.64,5.75-17.41,18-38.12,25.18-46.18,11.65-12.95,24.31-17.26,27.48-11.94C515.15,410.16,497.17,460.22,492.57,471.44Zm127.6,61c-3.16,1.58-6,2.73-7.34,1.87-1-.58,1.29-2.73,1.29-2.73s16-17.12,22.3-25c3.6-4.6,7.91-9.92,12.52-16v1.73c0,20.71-19.85,34.52-28.77,40.13ZM718.57,510c-2.3-1.73-2-7,5.75-23.74,3-6.62,9.93-17.69,21.87-28.2a35.59,35.59,0,0,1,2.16,12.37C748.2,496.33,729.79,506,718.57,510Z"/><path class="cls-2" d="M1105.89,515.22l6.29,8.65a38.26,38.26,0,0,1-12.9,7.24,45.51,45.51,0,0,1-14.94,2.67q-18.4,0-28.71-11.56T1045.33,491a52.05,52.05,0,0,1,4.64-22.34,36.4,36.4,0,0,1,13.45-15.57q8.81-5.66,20.92-5.66,16,0,27.68,9.75l-6.45,8.65q-10.85-7.23-21.39-7.24-11.17,0-17.85,8.26T1059.65,491q0,15.89,6.69,23.67t18,7.79Q1095.2,522.45,1105.89,515.22Z"/><path class="cls-2" d="M1173.53,511.6q0,11.17,13.68,11.17a38.83,38.83,0,0,0,13.84-2.83l3.46,9.6q-7.87,4.25-19.66,4.25-11.17,0-17.85-6.13T1160.32,511V426.34h-25.48V415.8h38.7Z"/><path class="cls-2" d="M1277.5,521.51h23.28V532h-62V521.51h25.48V459.69h-24.7V449.15h37.91ZM1274,413.05a9.69,9.69,0,0,1,0,13.37A9.73,9.73,0,0,1,1267,429a9.25,9.25,0,0,1-6.84-2.59,9.91,9.91,0,0,1,0-13.37,9.25,9.25,0,0,1,6.84-2.59A9.74,9.74,0,0,1,1274,413.05Z"/><rect class="cls-3" x="994.88" y="389.49" width="6.97" height="160.4" transform="translate(286.93 -373.64) rotate(24.65)"/></svg>